<mxfile host="app.diagrams.net" agent="Mozilla/5.0 (Windows NT 10.0; Win64; x64; rv:133.0) Gecko/20100101 Firefox/133.0" version="26.0.4">
  <diagram name="Página-1" id="f7-zcyWFl8f7tQIr4r0p">
    <mxGraphModel dx="1434" dy="706" grid="1" gridSize="10" guides="1" tooltips="1" connect="1" arrows="1" fold="1" page="1" pageScale="1" pageWidth="827" pageHeight="1169" math="0" shadow="0">
      <root>
        <mxCell id="0" />
        <mxCell id="1" parent="0" />
        <mxCell id="Hh7dZNtptdnggyX2xkTj-29" value="" style="rounded=0;whiteSpace=wrap;html=1;" parent="1" vertex="1">
          <mxGeometry x="104" y="250" width="310" height="520" as="geometry" />
        </mxCell>
        <mxCell id="Hh7dZNtptdnggyX2xkTj-30" value="" style="rounded=0;whiteSpace=wrap;html=1;" parent="1" vertex="1">
          <mxGeometry x="414" y="250" width="310" height="520" as="geometry" />
        </mxCell>
        <mxCell id="Hh7dZNtptdnggyX2xkTj-1" value="Passageiro" style="rounded=0;whiteSpace=wrap;html=1;" parent="1" vertex="1">
          <mxGeometry x="104" y="210" width="310" height="40" as="geometry" />
        </mxCell>
        <mxCell id="Hh7dZNtptdnggyX2xkTj-2" value="Aplicação" style="rounded=0;whiteSpace=wrap;html=1;" parent="1" vertex="1">
          <mxGeometry x="414" y="210" width="310" height="40" as="geometry" />
        </mxCell>
        <mxCell id="Hh7dZNtptdnggyX2xkTj-3" value="" style="ellipse;html=1;shape=startState;fillColor=#000000;strokeColor=#000000;" parent="1" vertex="1">
          <mxGeometry x="244" y="270" width="30" height="30" as="geometry" />
        </mxCell>
        <mxCell id="Hh7dZNtptdnggyX2xkTj-4" value="" style="edgeStyle=orthogonalEdgeStyle;html=1;verticalAlign=bottom;endArrow=open;endSize=8;strokeColor=#000000;rounded=0;entryX=0.5;entryY=0;entryDx=0;entryDy=0;" parent="1" source="Hh7dZNtptdnggyX2xkTj-3" target="Hh7dZNtptdnggyX2xkTj-7" edge="1">
          <mxGeometry relative="1" as="geometry">
            <mxPoint x="275" y="360" as="targetPoint" />
          </mxGeometry>
        </mxCell>
        <mxCell id="Hh7dZNtptdnggyX2xkTj-7" value="Entra na tela de ver passagens compradas" style="rounded=1;whiteSpace=wrap;html=1;" parent="1" vertex="1">
          <mxGeometry x="196.5" y="350" width="125" height="50" as="geometry" />
        </mxCell>
        <mxCell id="Hh7dZNtptdnggyX2xkTj-10" value="Mostra passagens compradas pelo passageiro" style="rounded=1;whiteSpace=wrap;html=1;" parent="1" vertex="1">
          <mxGeometry x="510" y="350" width="125" height="50" as="geometry" />
        </mxCell>
        <mxCell id="Hh7dZNtptdnggyX2xkTj-11" value="" style="edgeStyle=orthogonalEdgeStyle;html=1;verticalAlign=bottom;endArrow=open;endSize=8;strokeColor=#000000;rounded=0;entryX=0;entryY=0.5;entryDx=0;entryDy=0;exitX=1;exitY=0.5;exitDx=0;exitDy=0;" parent="1" source="Hh7dZNtptdnggyX2xkTj-7" target="Hh7dZNtptdnggyX2xkTj-10" edge="1">
          <mxGeometry relative="1" as="geometry">
            <mxPoint x="390" y="430" as="targetPoint" />
            <mxPoint x="390" y="380" as="sourcePoint" />
          </mxGeometry>
        </mxCell>
        <mxCell id="Hh7dZNtptdnggyX2xkTj-12" value="Escolhe filtros" style="rounded=1;whiteSpace=wrap;html=1;" parent="1" vertex="1">
          <mxGeometry x="196.5" y="420" width="125" height="50" as="geometry" />
        </mxCell>
        <mxCell id="Hh7dZNtptdnggyX2xkTj-13" value="" style="edgeStyle=orthogonalEdgeStyle;html=1;verticalAlign=bottom;endArrow=open;endSize=8;strokeColor=#000000;rounded=0;entryX=1;entryY=0.5;entryDx=0;entryDy=0;exitX=0.5;exitY=1;exitDx=0;exitDy=0;" parent="1" source="Hh7dZNtptdnggyX2xkTj-10" target="Hh7dZNtptdnggyX2xkTj-12" edge="1">
          <mxGeometry relative="1" as="geometry">
            <mxPoint x="605" y="450" as="targetPoint" />
            <mxPoint x="500" y="450" as="sourcePoint" />
          </mxGeometry>
        </mxCell>
        <mxCell id="Hh7dZNtptdnggyX2xkTj-14" value="Mostra&amp;nbsp;passagens com base no filtro selecionado" style="rounded=1;whiteSpace=wrap;html=1;" parent="1" vertex="1">
          <mxGeometry x="510" y="490" width="125" height="50" as="geometry" />
        </mxCell>
        <mxCell id="Hh7dZNtptdnggyX2xkTj-15" value="" style="edgeStyle=orthogonalEdgeStyle;html=1;verticalAlign=bottom;endArrow=open;endSize=8;strokeColor=#000000;rounded=0;exitX=0.5;exitY=1;exitDx=0;exitDy=0;entryX=0.5;entryY=0;entryDx=0;entryDy=0;" parent="1" source="Hh7dZNtptdnggyX2xkTj-12" target="Ed1rDfoJOPvzTUT5H8_8-5" edge="1">
          <mxGeometry relative="1" as="geometry">
            <mxPoint x="259" y="520" as="targetPoint" />
            <mxPoint x="390" y="560" as="sourcePoint" />
          </mxGeometry>
        </mxCell>
        <mxCell id="Hh7dZNtptdnggyX2xkTj-17" value="" style="edgeStyle=orthogonalEdgeStyle;html=1;verticalAlign=bottom;endArrow=open;endSize=8;strokeColor=#000000;rounded=0;entryX=1;entryY=0.5;entryDx=0;entryDy=0;exitX=0.5;exitY=1;exitDx=0;exitDy=0;" parent="1" source="Hh7dZNtptdnggyX2xkTj-14" target="Ed1rDfoJOPvzTUT5H8_8-8" edge="1">
          <mxGeometry relative="1" as="geometry">
            <mxPoint x="572.5" y="600" as="targetPoint" />
            <mxPoint x="440" y="584" as="sourcePoint" />
          </mxGeometry>
        </mxCell>
        <mxCell id="Hh7dZNtptdnggyX2xkTj-27" value="" style="ellipse;html=1;shape=endState;fillColor=#000000;strokeColor=#000000;" parent="1" vertex="1">
          <mxGeometry x="557.5" y="710" width="30" height="30" as="geometry" />
        </mxCell>
        <mxCell id="Ed1rDfoJOPvzTUT5H8_8-5" value="Pesquisa por&amp;nbsp;passagens utilizando o filtro" style="rounded=1;whiteSpace=wrap;html=1;" parent="1" vertex="1">
          <mxGeometry x="196.5" y="490" width="125" height="50" as="geometry" />
        </mxCell>
        <mxCell id="Ed1rDfoJOPvzTUT5H8_8-6" value="" style="edgeStyle=orthogonalEdgeStyle;html=1;verticalAlign=bottom;endArrow=open;endSize=8;strokeColor=#000000;rounded=0;entryX=0;entryY=0.5;entryDx=0;entryDy=0;exitX=1;exitY=0.5;exitDx=0;exitDy=0;" parent="1" source="Ed1rDfoJOPvzTUT5H8_8-5" target="Hh7dZNtptdnggyX2xkTj-14" edge="1">
          <mxGeometry relative="1" as="geometry">
            <mxPoint x="510" y="544.71" as="targetPoint" />
            <mxPoint x="322" y="544.71" as="sourcePoint" />
          </mxGeometry>
        </mxCell>
        <mxCell id="Ed1rDfoJOPvzTUT5H8_8-8" value="Selecionar passagem" style="rounded=1;whiteSpace=wrap;html=1;" parent="1" vertex="1">
          <mxGeometry x="196.5" y="560" width="125" height="50" as="geometry" />
        </mxCell>
        <mxCell id="Ed1rDfoJOPvzTUT5H8_8-9" value="Mostra dados da passagem" style="rounded=1;whiteSpace=wrap;html=1;" parent="1" vertex="1">
          <mxGeometry x="510" y="620" width="125" height="50" as="geometry" />
        </mxCell>
        <mxCell id="Ed1rDfoJOPvzTUT5H8_8-10" value="" style="edgeStyle=orthogonalEdgeStyle;html=1;verticalAlign=bottom;endArrow=open;endSize=8;strokeColor=#000000;rounded=0;entryX=0;entryY=0.5;entryDx=0;entryDy=0;exitX=0.5;exitY=1;exitDx=0;exitDy=0;" parent="1" source="Ed1rDfoJOPvzTUT5H8_8-8" target="Ed1rDfoJOPvzTUT5H8_8-9" edge="1">
          <mxGeometry relative="1" as="geometry">
            <mxPoint x="448" y="700" as="targetPoint" />
            <mxPoint x="260" y="700" as="sourcePoint" />
          </mxGeometry>
        </mxCell>
        <mxCell id="Ed1rDfoJOPvzTUT5H8_8-11" value="" style="edgeStyle=orthogonalEdgeStyle;html=1;verticalAlign=bottom;endArrow=open;endSize=8;strokeColor=#000000;rounded=0;entryX=0.5;entryY=0;entryDx=0;entryDy=0;exitX=0.5;exitY=1;exitDx=0;exitDy=0;" parent="1" source="Ed1rDfoJOPvzTUT5H8_8-9" target="Hh7dZNtptdnggyX2xkTj-27" edge="1">
          <mxGeometry relative="1" as="geometry">
            <mxPoint x="530" y="675" as="targetPoint" />
            <mxPoint x="269" y="645" as="sourcePoint" />
          </mxGeometry>
        </mxCell>
      </root>
    </mxGraphModel>
  </diagram>
</mxfile>
